//0xA840 RAW GBK PATCH
STARTCHAR 0x0000
ENCODING 43072
SWIDTH 886 0
DWIDTH 12 0
BBX 12 12 0 -2
BITMAP
0000
1000
1800
2000
0000
0000
0000
0000
0000
0000
0000
0000
ENDCHAR
STARTCHAR 0x0000
ENCODING 43073
SWIDTH 886 0
DWIDTH 12 0
BBX 12 12 0 -2
BITMAP
0000
1000
3000
0800
0000
0000
0000
0000
0000
0000
0000
0000
ENDCHAR
STARTCHAR 0x0000
ENCODING 43074
SWIDTH 886 0
DWIDTH 12 0
BBX 12 12 0 -2
BITMAP
0000
0C00
1E00
1E00
0C00
0000
0000
0000
0000
0000
0000
0000
ENDCHAR
STARTCHAR 0x0000
ENCODING 43075
SWIDTH 886 0
DWIDTH 12 0
BBX 12 12 0 -2
BITMAP
0000
0000
0000
0000
0000
0F00
0000
0000
0000
0000
0000
0000
ENDCHAR
STARTCHAR 0x0000
ENCODING 00000
SWIDTH 886 0
DWIDTH 12 0
BBX 12 12 0 -2
BITMAP
0000
0000
0000
0000
0000
0000
0000
0000
0000
0000
0000
0000
ENDCHAR
STARTCHAR 0x0000
ENCODING 00000
SWIDTH 886 0
DWIDTH 12 0
BBX 12 12 0 -2
BITMAP
0000
0000
0000
0000
0000
0000
0000
0000
0000
0000
0000
0000
ENDCHAR
STARTCHAR 0x0000
ENCODING 43078
SWIDTH 886 0
DWIDTH 12 0
BBX 12 12 0 -2
BITMAP
0000
0800
1C00
0400
0200
0000
0000
0000
0000
0000
0000
0000
ENDCHAR
STARTCHAR 0x0000
ENCODING 43079
SWIDTH 886 0
DWIDTH 12 0
BBX 12 12 0 -2
BITMAP
0000
0C20
1040
0C80
0100
0200
0400
08C0
1120
2120
40C0
0000
ENDCHAR
STARTCHAR 0x0000
ENCODING 43080
SWIDTH 886 0
DWIDTH 12 0
BBX 12 12 0 -2
BITMAP
4000
AFE0
4800
0800
0FC0
0800
0800
0800
0800
0800
0800
0000
ENDCHAR
STARTCHAR 0x0000
ENCODING 43081
SWIDTH 886 0
DWIDTH 12 0
BBX 12 12 0 -2
BITMAP
0000
7C00
6000
5000
4800
4400
0200
0100
0080
0040
0020
0000
ENDCHAR
STARTCHAR 0x0000
ENCODING 43082
SWIDTH 886 0
DWIDTH 12 0
BBX 12 12 0 -2
BITMAP
0000
03E0
0060
00A0
0120
0220
0400
0800
1000
2000
4000
0000
ENDCHAR
STARTCHAR 0x0000
ENCODING 43083
SWIDTH 886 0
DWIDTH 12 0
BBX 12 12 0 -2
BITMAP
0000
4000
2000
1000
0800
0400
0220
0120
00A0
0060
03E0
0000
ENDCHAR
STARTCHAR 0x0000
ENCODING 43084
SWIDTH 886 0
DWIDTH 12 0
BBX 12 12 0 -2
BITMAP
0000
0020
0040
0080
0100
0200
4400
4800
5000
6000
7C00
0000
ENDCHAR
STARTCHAR 0x0000
ENCODING 43085
SWIDTH 886 0
DWIDTH 12 0
BBX 12 12 0 -2
BITMAP
0000
0100
0100
0200
0200
0400
0400
0800
0800
1000
1000
0000
ENDCHAR
STARTCHAR 0x0000
ENCODING 00000
SWIDTH 886 0
DWIDTH 12 0
BBX 12 12 0 -2
BITMAP
0000
0000
0000
0000
0000
0000
0000
0000
0000
0000
0000
0000
ENDCHAR
STARTCHAR 0x0000
ENCODING 43087
SWIDTH 886 0
DWIDTH 12 0
BBX 12 12 0 -2
BITMAP
0400
0400
0400
0400
0400
0400
0400
0400
0400
0400
0400
0000
ENDCHAR
STARTCHAR 0x0000
ENCODING 00000
SWIDTH 886 0
DWIDTH 12 0
BBX 12 12 0 -2
BITMAP
0000
0000
0000
0000
0000
0000
0000
0000
0000
0000
0000
0000
ENDCHAR
STARTCHAR 0x0000
ENCODING 00000
SWIDTH 886 0
DWIDTH 12 0
BBX 12 12 0 -2
BITMAP
0000
0000
0000
0000
0000
0000
0000
0000
0000
0000
0000
0000
ENDCHAR
STARTCHAR 0x0000
ENCODING 00000
SWIDTH 886 0
DWIDTH 12 0
BBX 12 12 0 -2
BITMAP
0000
0000
0000
0000
0000
0000
0000
0000
0000
0000
0000
0000
ENDCHAR
STARTCHAR 0x0000
ENCODING 00000
SWIDTH 886 0
DWIDTH 12 0
BBX 12 12 0 -2
BITMAP
0000
0000
0000
0000
0000
0000
0000
0000
0000
0000
0000
0000
ENDCHAR
STARTCHAR 0x0000
ENCODING 43092
SWIDTH 886 0
DWIDTH 12 0
BBX 12 12 0 -2
BITMAP
0000
0000
0000
0000
FFE0
0000
FFE0
0000
0000
0000
0000
0000
ENDCHAR
STARTCHAR 0x0000
ENCODING 43093
SWIDTH 886 0
DWIDTH 12 0
BBX 12 12 0 -2
BITMAP
0A00
0A00
0A00
0A00
0A00
0A00
0A00
0A00
0A00
0A00
0A00
0000
ENDCHAR
STARTCHAR 0x0000
ENCODING 43094
SWIDTH 886 0
DWIDTH 12 0
BBX 12 12 0 -2
BITMAP
0000
0000
0000
0000
0000
07E0
0400
07E0
0400
0400
0400
0000
ENDCHAR
STARTCHAR 0x0000
ENCODING 43095
SWIDTH 886 0
DWIDTH 12 0
BBX 12 12 0 -2
BITMAP
0000
0000
0000
0000
0000
07E0
0500
0500
0500
0500
0500
0000
ENDCHAR
STARTCHAR 0x0000
ENCODING 43096
SWIDTH 886 0
DWIDTH 12 0
BBX 12 12 0 -2
BITMAP
0000
0000
0000
0000
0000
07E0
0400
05E0
0500
0500
0500
0000
ENDCHAR
STARTCHAR 0x0000
ENCODING 43097
SWIDTH 886 0
DWIDTH 12 0
BBX 12 12 0 -2
BITMAP
0000
0000
0000
0000
0000
7E00
0200
7E00
0200
0200
0200
0000
ENDCHAR
STARTCHAR 0x0000
ENCODING 43098
SWIDTH 886 0
DWIDTH 12 0
BBX 12 12 0 -2
BITMAP
0000
0000
0000
0000
0000
7E00
0A00
0A00
0A00
0A00
0A00
0000
ENDCHAR
STARTCHAR 0x0000
ENCODING 43099
SWIDTH 886 0
DWIDTH 12 0
BBX 12 12 0 -2
BITMAP
0000
0000
0000
0000
0000
7E00
0200
7A00
0A00
0A00
0A00
0000
ENDCHAR
STARTCHAR 0x0000
ENCODING 43100
SWIDTH 886 0
DWIDTH 12 0
BBX 12 12 0 -2
BITMAP
0000
0400
0400
0400
07E0
0400
07E0
0000
0000
0000
0000
0000
ENDCHAR
STARTCHAR 0x0000
ENCODING 43101
SWIDTH 886 0
DWIDTH 12 0
BBX 12 12 0 -2
BITMAP
0000
0500
0500
0500
0500
0500
07E0
0000
0000
0000
0000
0000
ENDCHAR
STARTCHAR 0x0000
ENCODING 43102
SWIDTH 886 0
DWIDTH 12 0
BBX 12 12 0 -2
BITMAP
0000
0500
0500
0500
05E0
0400
07E0
0000
0000
0000
0000
0000
ENDCHAR
STARTCHAR 0x0000
ENCODING 43103
SWIDTH 886 0
DWIDTH 12 0
BBX 12 12 0 -2
BITMAP
0000
0200
0200
0200
7E00
0200
7E00
0000
0000
0000
0000
0000
ENDCHAR
STARTCHAR 0x0000
ENCODING 43104
SWIDTH 886 0
DWIDTH 12 0
BBX 12 12 0 -2
BITMAP
0000
0A00
0A00
0A00
0A00
7E00
0000
0000
0000
0000
0000
0000
ENDCHAR
STARTCHAR 0x0000
ENCODING 43105
SWIDTH 886 0
DWIDTH 12 0
BBX 12 12 0 -2
BITMAP
0000
0A00
0A00
0A00
7A00
0200
7E00
0000
0000
0000
0000
0000
ENDCHAR
STARTCHAR 0x0000
ENCODING 43106
SWIDTH 886 0
DWIDTH 12 0
BBX 12 12 0 -2
BITMAP
0000
0800
0800
0800
0F80
0800
0800
0F80
0800
0800
0800
0000
ENDCHAR
STARTCHAR 0x0000
ENCODING 43107
SWIDTH 886 0
DWIDTH 12 0
BBX 12 12 0 -2
BITMAP
0000
0A00
0A00
0A00
0A00
0BE0
0A00
0A00
0A00
0A00
0A00
0000
ENDCHAR
STARTCHAR 0x0000
ENCODING 43108
SWIDTH 886 0
DWIDTH 12 0
BBX 12 12 0 -2
BITMAP
0000
0A00
0A00
0A00
0BE0
0800
0BE0
0A00
0A00
0A00
0A00
0000
ENDCHAR
STARTCHAR 0x0000
ENCODING 43109
SWIDTH 886 0
DWIDTH 12 0
BBX 12 12 0 -2
BITMAP
0000
0200
0200
0200
3E00
0200
0200
3E00
0200
0200
0200
0000
ENDCHAR
STARTCHAR 0x0000
ENCODING 43110
SWIDTH 886 0
DWIDTH 12 0
BBX 12 12 0 -2
BITMAP
0500
0500
0500
0500
0500
FD00
0500
0500
0500
0500
0500
0000
ENDCHAR
STARTCHAR 0x0000
ENCODING 43111
SWIDTH 886 0
DWIDTH 12 0
BBX 12 12 0 -2
BITMAP
0A00
0A00
0A00
0A00
FA00
0200
FA00
0A00
0A00
0A00
0A00
0000
ENDCHAR
STARTCHAR 0x0000
ENCODING 43112
SWIDTH 886 0
DWIDTH 12 0
BBX 12 12 0 -2
BITMAP
0000
0000
0000
0000
FFE0
0000
FFE0
0400
0400
0400
0400
0000
ENDCHAR
STARTCHAR 0x0000
ENCODING 43113
SWIDTH 886 0
DWIDTH 12 0
BBX 12 12 0 -2
BITMAP
0000
0000
0000
0000
0000
FFE0
0A00
0A00
0A00
0A00
0A00
0000
ENDCHAR
STARTCHAR 0x0000
ENCODING 43114
SWIDTH 886 0
DWIDTH 12 0
BBX 12 12 0 -2
BITMAP
0000
0000
0000
0000
FFE0
0000
FBE0
0A00
0A00
0A00
0A00
0000
ENDCHAR
STARTCHAR 0x0000
ENCODING 43115
SWIDTH 886 0
DWIDTH 12 0
BBX 12 12 0 -2
BITMAP
0400
0400
0400
0400
FFE0
0000
FFE0
0000
0000
0000
0000
0000
ENDCHAR
STARTCHAR 0x0000
ENCODING 43116
SWIDTH 886 0
DWIDTH 12 0
BBX 12 12 0 -2
BITMAP
0A00
0A00
0A00
0A00
FFE0
0000
0000
0000
0000
0000
0000
0000
ENDCHAR
STARTCHAR 0x0000
ENCODING 43117
SWIDTH 886 0
DWIDTH 12 0
BBX 12 12 0 -2
BITMAP
0A00
0A00
0A00
0A00
FBE0
0000
FFE0
0000
0000
0000
0000
0000
ENDCHAR
STARTCHAR 0x0000
ENCODING 43118
SWIDTH 886 0
DWIDTH 12 0
BBX 12 12 0 -2
BITMAP
0400
0400
0400
0400
FFE0
0400
FFE0
0400
0400
0400
0400
0000
ENDCHAR
STARTCHAR 0x0000
ENCODING 43119
SWIDTH 886 0
DWIDTH 12 0
BBX 12 12 0 -2
BITMAP
0A00
0A00
0A00
0A00
0A00
FFE0
0A00
0A00
0A00
0A00
0A00
0000
ENDCHAR
STARTCHAR 0x0000
ENCODING 43120
SWIDTH 886 0
DWIDTH 12 0
BBX 12 12 0 -2
BITMAP
0A00
0A00
0A00
0A00
FBE0
0000
FBE0
0A00
0A00
0A00
0A00
0000
ENDCHAR
STARTCHAR 0x0000
ENCODING 43121
SWIDTH 886 0
DWIDTH 12 0
BBX 12 12 0 -2
BITMAP
0000
0000
0000
0000
0000
00E0
0100
0200
0400
0400
0400
0000
ENDCHAR
STARTCHAR 0x0000
ENCODING 43122
SWIDTH 886 0
DWIDTH 12 0
BBX 12 12 0 -2
BITMAP
0000
0000
0000
0000
0000
E000
1000
0800
0400
0400
0400
0000
ENDCHAR
STARTCHAR 0x0000
ENCODING 43123
SWIDTH 886 0
DWIDTH 12 0
BBX 12 12 0 -2
BITMAP
0400
0400
0400
0800
1000
E000
0000
0000
0000
0000
0000
0000
ENDCHAR
STARTCHAR 0x0000
ENCODING 43124
SWIDTH 886 0
DWIDTH 12 0
BBX 12 12 0 -2
BITMAP
0400
0400
0400
0200
0100
00E0
0000
0000
0000
0000
0000
0000
ENDCHAR
STARTCHAR 0x0000
ENCODING 43125
SWIDTH 886 0
DWIDTH 12 0
BBX 12 12 0 -2
BITMAP
0000
0020
0040
0080
0100
0200
0400
0800
1000
2000
4000
0000
ENDCHAR
STARTCHAR 0x0000
ENCODING 43126
SWIDTH 886 0
DWIDTH 12 0
BBX 12 12 0 -2
BITMAP
0000
4000
2000
1000
0800
0400
0200
0100
0080
0040
0020
0000
ENDCHAR
STARTCHAR 0x0000
ENCODING 43127
SWIDTH 886 0
DWIDTH 12 0
BBX 12 12 0 -2
BITMAP
0000
4020
2040
1080
0900
0600
0600
0900
1080
2040
4020
0000
ENDCHAR
STARTCHAR 0x0000
ENCODING 43128
SWIDTH 886 0
DWIDTH 12 0
BBX 12 12 0 -2
BITMAP
0000
0000
0000
0000
0000
0000
0000
0000
0000
7FE0
7FE0
0000
ENDCHAR
STARTCHAR 0x0000
ENCODING 43129
SWIDTH 886 0
DWIDTH 12 0
BBX 12 12 0 -2
BITMAP
0000
0000
0000
0000
0000
0000
0000
0000
7FE0
7FE0
7FE0
0000
ENDCHAR
STARTCHAR 0x0000
ENCODING 43130
SWIDTH 886 0
DWIDTH 12 0
BBX 12 12 0 -2
BITMAP
0000
0000
0000
0000
0000
0000
0000
7FE0
7FE0
7FE0
7FE0
0000
ENDCHAR
STARTCHAR 0x0000
ENCODING 43131
SWIDTH 886 0
DWIDTH 12 0
BBX 12 12 0 -2
BITMAP
0000
0000
0000
0000
0000
0000
7FE0
7FE0
7FE0
7FE0
7FE0
0000
ENDCHAR
STARTCHAR 0x0000
ENCODING 43132
SWIDTH 886 0
DWIDTH 12 0
BBX 12 12 0 -2
BITMAP
0000
0000
0000
0000
0000
7FE0
7FE0
7FE0
7FE0
7FE0
7FE0
0000
ENDCHAR
STARTCHAR 0x0000
ENCODING 43133
SWIDTH 886 0
DWIDTH 12 0
BBX 12 12 0 -2
BITMAP
0000
0000
0000
0000
7FE0
7FE0
7FE0
7FE0
7FE0
7FE0
7FE0
0000
ENDCHAR
STARTCHAR 0x0000
ENCODING 43134
SWIDTH 886 0
DWIDTH 12 0
BBX 12 12 0 -2
BITMAP
0000
0000
0000
7FE0
7FE0
7FE0
7FE0
7FE0
7FE0
7FE0
7FE0
0000
ENDCHAR
STARTCHAR 0x0000
ENCODING 00000
SWIDTH 886 0
DWIDTH 12 0
BBX 12 12 0 -2
BITMAP
0000
0000
0000
0000
0000
0000
0000
0000
0000
0000
0000
0000
ENDCHAR
STARTCHAR 0x0000
ENCODING 43136
SWIDTH 886 0
DWIDTH 12 0
BBX 12 12 0 -2
BITMAP
0000
0000
7FE0
7FE0
7FE0
7FE0
7FE0
7FE0
7FE0
7FE0
7FE0
0000
ENDCHAR
STARTCHAR 0x0000
ENCODING 43137
SWIDTH 886 0
DWIDTH 12 0
BBX 12 12 0 -2
BITMAP
0000
0000
7FC0
7FC0
7FC0
7FC0
7FC0
7FC0
7FC0
7FC0
7FC0
0000
ENDCHAR
STARTCHAR 0x0000
ENCODING 43138
SWIDTH 886 0
DWIDTH 12 0
BBX 12 12 0 -2
BITMAP
0000
0000
7F80
7F80
7F80
7F80
7F80
7F80
7F80
7F80
7F80
0000
ENDCHAR
STARTCHAR 0x0000
ENCODING 43139
SWIDTH 886 0
DWIDTH 12 0
BBX 12 12 0 -2
BITMAP
0000
0000
7F00
7F00
7F00
7F00
7F00
7F00
7F00
7F00
7F00
0000
ENDCHAR
STARTCHAR 0x0000
ENCODING 43140
SWIDTH 886 0
DWIDTH 12 0
BBX 12 12 0 -2
BITMAP
0000
0000
7E00
7E00
7E00
7E00
7E00
7E00
7E00
7E00
7E00
0000
ENDCHAR
STARTCHAR 0x0000
ENCODING 43141
SWIDTH 886 0
DWIDTH 12 0
BBX 12 12 0 -2
BITMAP
0000
0000
7C00
7C00
7C00
7C00
7C00
7C00
7C00
7C00
7C00
0000
ENDCHAR
STARTCHAR 0x0000
ENCODING 43142
SWIDTH 886 0
DWIDTH 12 0
BBX 12 12 0 -2
BITMAP
0000
0000
7000
7000
7000
7000
7000
7000
7000
7000
7000
0000
ENDCHAR
STARTCHAR 0x0000
ENCODING 43143
SWIDTH 886 0
DWIDTH 12 0
BBX 12 12 0 -2
BITMAP
0000
0000
6000
6000
6000
6000
6000
6000
6000
6000
6000
0000
ENDCHAR
STARTCHAR 0x0000
ENCODING 43144
SWIDTH 886 0
DWIDTH 12 0
BBX 12 12 0 -2
BITMAP
0000
0000
0000
7F80
6A80
5580
6A80
5580
6A80
5580
7F80
0000
ENDCHAR
STARTCHAR 0x0000
ENCODING 43145
SWIDTH 886 0
DWIDTH 12 0
BBX 12 12 0 -2
BITMAP
3F80
3F80
0000
0000
0000
0000
0000
0000
0000
0000
0000
0000
ENDCHAR
STARTCHAR 0x0000
ENCODING 43146
SWIDTH 886 0
DWIDTH 12 0
BBX 12 12 0 -2
BITMAP
0000
0180
0180
0180
0180
0180
0180
0180
0180
0180
0180
0000
ENDCHAR
STARTCHAR 0x0000
ENCODING 00000
SWIDTH 886 0
DWIDTH 12 0
BBX 12 12 0 -2
BITMAP
0000
0000
0000
0000
0000
0000
0000
0000
0000
0000
0000
0000
ENDCHAR
STARTCHAR 0x0000
ENCODING 00000
SWIDTH 886 0
DWIDTH 12 0
BBX 12 12 0 -2
BITMAP
0000
0000
0000
0000
0000
0000
0000
0000
0000
0000
0000
0000
ENDCHAR
STARTCHAR 0x0000
ENCODING 43149
SWIDTH 886 0
DWIDTH 12 0
BBX 12 12 0 -2
BITMAP
0000
0000
0020
0060
00E0
01E0
03E0
07E0
0FE0
1FE0
3FE0
0000
ENDCHAR
STARTCHAR 0x0000
ENCODING 43150
SWIDTH 886 0
DWIDTH 12 0
BBX 12 12 0 -2
BITMAP
0000
0000
4000
6000
7000
7800
7C00
7E00
7F00
7F80
7FC0
0000
ENDCHAR
STARTCHAR 0x0000
ENCODING 43151
SWIDTH 886 0
DWIDTH 12 0
BBX 12 12 0 -2
BITMAP
0000
0000
7FC0
7F80
7F00
7E00
7C00
7800
7000
6000
4000
0000
ENDCHAR
STARTCHAR 0x0000
ENCODING 43152
SWIDTH 886 0
DWIDTH 12 0
BBX 12 12 0 -2
BITMAP
0000
0000
7FC0
3FC0
1FC0
0FC0
07C0
03C0
01C0
00C0
0040
0000
ENDCHAR
STARTCHAR 0x0000
ENCODING 43153
SWIDTH 886 0
DWIDTH 12 0
BBX 12 12 0 -2
BITMAP
0000
0000
0E00
3180
2080
4440
4E40
4440
2080
3180
0E00
0000
ENDCHAR
STARTCHAR 0x0000
ENCODING 43154
SWIDTH 886 0
DWIDTH 12 0
BBX 12 12 0 -2
BITMAP
0000
0000
0E00
3580
2480
4440
7FC0
4440
2480
3580
0E00
0000
ENDCHAR
STARTCHAR 0x0000
ENCODING 00000
SWIDTH 886 0
DWIDTH 12 0
BBX 12 12 0 -2
BITMAP
0000
0000
0000
0000
0000
0000
0000
0000
0000
0000
0000
0000
ENDCHAR
STARTCHAR 0x0000
ENCODING 43156
SWIDTH 886 0
DWIDTH 12 0
BBX 12 12 0 -2
BITMAP
0000
1B00
1B00
0900
0480
0200
0000
0000
0000
0000
0000
0000
ENDCHAR
STARTCHAR 0x0000
ENCODING 43157
SWIDTH 886 0
DWIDTH 12 0
BBX 12 12 0 -2
BITMAP
0000
0D80
0D80
0480
0900
0200
0000
0000
0000
0000
0000
0000
ENDCHAR
ENDFONT
